<?xml version="1.0" encoding="UTF-8" standalone="no"?>
<!DOCTYPE svg PUBLIC "-//W3C//DTD SVG 1.1//EN" "http://www.w3.org/Graphics/SVG/1.1/DTD/svg11.dtd">
<svg version="1.1" xmlns="http://www.w3.org/2000/svg" xmlns:xlink="http://www.w3.org/1999/xlink" preserveAspectRatio="xMidYMid meet" viewBox="0 0 640 640" width="600" height="600"><defs><path d="M236.66 349.72C236.66 423.61 267.93 443.17 311.51 443.17C355.09 443.17 388.19 421.78 388.19 349.72C388.19 272.74 355.04 256.63 311.51 256.63C267.93 256.63 236.66 284.55 236.66 349.72ZM265.85 349.82C265.85 304.67 282.27 280.85 312.42 280.85C342.58 280.85 359 296.51 359 349.82C359 399.69 341.97 418.69 311.76 418.69C281.61 418.69 265.85 401.01 265.85 349.82Z" id="aN6W6VYpg"></path><path d="M192.57 391.68C192.57 359.85 192.57 342.16 192.57 338.62C192.57 332.75 187.81 327.98 181.93 327.98C181.51 327.98 178.14 327.98 177.72 327.98C171.85 327.98 167.08 332.75 167.08 338.62C167.08 338.62 167.08 338.62 167.08 338.62L167.08 391.63C136.62 391.63 119.69 391.63 116.3 391.63C112.96 391.63 110.22 388.9 110.22 385.55C110.22 384.59 110.48 383.57 110.93 382.71C116.31 372.54 159.32 291.17 164.7 281C167.44 275.83 165.46 269.4 160.29 266.66C160.14 266.61 159.99 266.51 159.89 266.46C159.57 266.31 157.01 265.09 156.69 264.94C151.57 262.51 145.44 264.53 142.81 269.55C136.25 281.81 83.79 379.93 77.23 392.19C76.12 394.27 75.51 396.6 75.51 398.98C75.51 398.98 75.51 398.98 75.51 398.98C75.51 406.94 81.94 413.37 89.9 413.37C89.9 413.37 89.9 413.37 89.9 413.37C95.05 413.37 120.77 413.37 167.08 413.37C167.08 433.5 167.08 444.68 167.08 446.92C167.08 453.96 172.76 459.64 179.8 459.64C179.8 459.64 179.8 459.64 179.8 459.64C179.8 459.64 179.8 459.64 179.8 459.64C186.85 459.64 192.52 453.96 192.52 446.92C192.52 446.92 192.52 446.92 192.52 446.92L192.52 413.37C203.32 413.37 209.31 413.37 210.51 413.37C216.49 413.37 221.36 408.51 221.36 402.53C221.36 402.53 221.36 402.53 221.36 402.53C221.46 396.55 216.59 391.68 210.56 391.68C210.56 391.68 210.56 391.68 210.56 391.68L192.57 391.68Z" id="c4Ls1ZgEzr"></path><path d="M526.03 391.68C526.03 359.85 526.03 342.16 526.03 338.62C526.03 332.75 521.26 327.98 515.39 327.98C514.96 327.98 511.6 327.98 511.18 327.98C505.3 327.98 500.54 332.75 500.54 338.62C500.54 338.62 500.54 338.62 500.54 338.62L500.54 391.63C470.07 391.63 453.14 391.63 449.76 391.63C446.41 391.63 443.68 388.9 443.68 385.55C443.68 384.59 443.93 383.57 444.39 382.71C449.76 372.54 492.78 291.17 498.16 281C500.89 275.83 498.92 269.4 493.75 266.66C493.59 266.61 493.44 266.51 493.34 266.46C493.02 266.31 490.47 265.09 490.15 264.94C485.03 262.51 478.9 264.53 476.26 269.55C469.7 281.81 417.24 379.93 410.69 392.19C409.57 394.27 408.96 396.6 408.96 398.98C408.96 398.98 408.96 398.98 408.96 398.98C408.96 406.94 415.4 413.37 423.36 413.37C423.36 413.37 423.36 413.37 423.36 413.37L500.54 413.37C500.54 433.5 500.54 444.68 500.54 446.92C500.54 453.96 506.21 459.64 513.26 459.64C513.26 459.64 513.26 459.64 513.26 459.64C513.26 459.64 513.26 459.64 513.26 459.64C520.3 459.64 525.98 453.96 525.98 446.92C525.98 446.92 525.98 446.92 525.98 446.92C525.98 444.68 525.98 433.5 525.98 413.37C536.77 413.37 542.77 413.37 543.97 413.37C549.95 413.37 554.81 408.51 554.81 402.53C554.81 402.53 554.81 402.53 554.81 402.53C554.81 402.53 554.81 402.53 554.81 402.53C554.91 396.55 550.05 391.68 544.02 391.68C544.02 391.68 544.02 391.68 544.02 391.68L526.03 391.68Z" id="c4LPmhfkg9"></path><path d="M286.53 174.68C282.92 174.68 279.99 177.61 279.99 181.22C279.99 184.83 282.92 187.76 286.53 187.76C290.14 187.76 293.07 184.83 293.07 181.22C293.07 177.61 290.14 174.68 286.53 174.68Z" id="c1pLCBk9K"></path><path d="M320.79 195.71C320.79 208.84 312.57 219.48 302.44 219.48C292.31 219.48 284.1 208.84 284.1 195.71C284.1 182.59 292.31 171.95 302.44 171.95C312.57 171.95 320.79 182.59 320.79 195.71Z" id="c2P3ceuKKi"></path><path d="M284.3 192.17C284.15 193.38 284.1 194.55 284.1 195.77C284.1 208.89 292.31 219.53 302.44 219.53C312.58 219.53 320.79 208.89 320.79 195.77C320.79 194.55 320.73 193.38 320.58 192.17C319.27 203.57 311.66 212.34 302.44 212.34C293.27 212.34 285.67 203.57 284.3 192.17Z" id="ca7CNKUqJg"></path><path d="M335.84 269.09C331.88 271.02 327.02 271.58 322.26 271.78C321.04 271.83 319.82 271.83 318.66 271.73C316.33 271.53 314.15 270.51 312.42 268.89C312.02 268.64 311.92 268.13 312.17 267.73C312.22 267.63 312.32 267.52 312.42 267.47C314.96 264.69 319.16 263.01 323.37 261.8C326.56 260.89 332.19 258.45 335.68 258.81C339.08 259.06 340.3 263.27 339.79 265.29C339.38 266.92 337.71 268.23 335.84 269.09Z" id="b1CMTMDHnm"></path><path d="M335.84 269.09C331.88 271.02 327.02 271.58 322.26 271.78C321.04 271.83 319.82 271.83 318.66 271.73C316.33 271.53 314.15 270.51 312.42 268.89C312.02 268.64 311.92 268.13 312.17 267.73C312.22 267.63 312.32 267.52 312.42 267.47C314.96 264.69 319.16 263.01 323.37 261.8C326.56 260.89 332.19 258.45 335.68 258.81C339.08 259.06 340.3 263.27 339.79 265.29C339.38 266.92 337.71 268.23 335.84 269.09Z" id="a2qbC3pfYB"></path><path d="M288.91 260.89C289.72 263.37 291.29 265.6 293.37 267.22C298.49 271.32 305.53 271.88 312.07 271.83C317.8 271.78 323.57 271.38 329.25 270.67C331.17 270.51 333.05 270.06 334.82 269.35C336.95 268.44 338.83 266.71 339.59 264.53C340.35 262.35 339.79 259.62 338.02 258.15C336.44 256.88 334.21 256.68 332.19 256.58C331.02 256.51 321.65 255.94 320.48 255.87C321.65 254.7 323.17 254.04 324.59 253.18C326.46 252.07 327.68 250.14 329.05 248.47C331.12 245.99 333.4 243.6 335.84 241.48C336.24 243.66 337.61 245.43 339.23 246.95C340.85 248.47 342.73 249.69 344.4 251.1C348.51 254.6 351.45 259.31 355.75 262.51C358.69 261.75 361.48 260.33 363.86 258.45C363.69 258.15 362.36 255.72 362.19 255.41C362.04 255.11 361.83 254.8 361.58 254.6C361.12 254.3 360.52 254.45 359.96 254.4C358.49 254.2 357.83 252.47 357.27 251.1C355.7 247.35 352.66 244.42 350.08 241.27C348.15 238.94 346.48 236.46 345.01 233.82C344.15 232.25 343.34 230.63 342.17 229.26C341.01 227.89 339.33 226.83 337.56 226.83C335.99 226.83 334.52 227.64 333.15 228.45C329 230.94 324.99 233.62 321.19 236.61C319.21 238.18 317.19 239.8 314.86 240.77C313.89 241.17 312.83 241.43 311.87 241.93C310.19 242.79 308.93 244.21 307.61 245.53C302.8 249.99 296.16 252.98 289.52 253.23C288.3 255.61 288.1 258.35 288.91 260.89Z" id="c2981AjbGa"></path><path d="M313.13 224.7C312.58 226.02 311.51 227.03 310.19 227.54C309.28 227.79 308.27 227.84 307.36 227.64C306.55 227.54 305.73 227.29 305.02 226.83C303.91 226.07 303.4 224.75 303.2 223.43C303 222.12 303.1 220.8 302.95 219.43C302.85 218.37 302.64 217.3 302.34 216.24C302.24 215.88 302.19 215.53 302.09 215.23C301.98 214.87 301.93 214.52 301.83 214.21C301.78 213.91 301.68 213.55 301.63 213.25C301.58 213 301.53 212.69 301.53 212.44C301.48 211.63 301.38 210.77 301.12 210.01C300.87 209.5 300.62 208.99 300.26 208.54C300.11 208.33 299.96 208.13 299.86 207.93C299.5 207.37 299.3 206.71 299.35 206.05C299.35 205.95 299.4 205.85 299.4 205.75C299.4 205.7 299.45 205.65 299.45 205.65C299.75 205.55 299.96 205.34 300.06 205.09C300.11 204.79 300.11 204.48 300.01 204.18C299.91 203.77 299.7 203.37 299.5 203.01C299.35 202.76 298.89 202.35 298.89 202.05C298.89 201.49 299.96 201.04 300.41 200.83C301.78 200.17 303.25 199.87 304.77 199.97C305.73 200.02 306.8 200.33 307.31 201.14C307.76 201.85 307.71 202.81 307.91 203.67C307.91 203.77 307.96 203.92 308.07 204.03C308.17 204.13 308.32 204.18 308.42 204.18C308.67 204.23 308.88 204.23 309.13 204.23C309.13 204.23 309.13 204.23 309.13 204.23C309.18 204.23 309.23 204.23 309.33 204.18C309.69 204.13 310.04 203.97 310.35 203.72C310.55 203.67 310.75 203.62 310.95 203.57C310.95 203.57 310.95 203.57 310.95 203.57C311.76 206.1 311.87 208.79 312.53 211.37C312.83 212.64 313.34 213.91 313.39 215.23C313.39 215.28 313.39 215.33 313.39 215.38C313.39 215.78 313.39 216.24 313.39 216.64C313.39 216.85 313.44 217 313.44 217.2C313.49 217.51 313.59 217.81 313.69 218.06C313.69 218.06 313.69 218.06 313.69 218.06C313.74 218.16 313.74 218.27 313.79 218.37C313.79 218.42 313.84 218.52 313.84 218.57C313.84 218.57 313.84 218.57 313.84 218.57C314.05 219.23 314.05 219.94 313.99 220.65C313.94 222.07 313.64 223.43 313.13 224.7Z" id="a4fDjITi1g"></path><path d="M302.8 185.33C297.59 185.33 293.37 189.55 293.37 194.75C293.37 199.96 297.59 204.18 302.8 204.18C308 204.18 312.22 199.96 312.22 194.75C312.22 189.55 308 185.33 302.8 185.33Z" id="a3EtYtACFa"></path><path d="M359.86 238.89C360.11 240.36 360.36 241.78 360.57 243.25C359.96 243.45 359.25 243.2 358.84 242.74C358.44 242.24 358.13 241.68 357.93 241.07C356.87 238.44 355.45 235.9 353.78 233.62C347.8 233.11 341.87 230.63 336.6 227.74C331.33 224.85 326.41 221.36 321.19 218.37C320.28 217.81 319.37 217.35 318.4 216.95C316.78 216.29 314.96 215.93 313.39 215.17C313.29 215.12 313.18 215.07 313.08 215.02C312.73 214.82 312.42 214.62 312.12 214.36C311.97 214.21 311.82 214.06 311.66 213.91C310.9 213 310.3 211.98 309.84 210.87C309.03 209.04 308.72 206.81 307.91 204.99C308.27 204.63 308.72 204.33 309.18 204.08C309.18 204.08 309.18 204.08 309.18 204.08C309.23 204.03 309.33 204.03 309.38 203.97C309.69 203.82 310.04 203.72 310.4 203.62C310.6 203.57 310.8 203.52 311 203.47C311 203.47 311 203.47 311 203.47C311.92 203.32 312.88 203.37 313.79 203.67C315.11 204.13 316.22 204.99 317.29 205.85C319.06 207.12 320.79 208.49 322.41 209.9C323.32 210.77 324.13 211.73 325.14 212.54C325.95 213.15 326.82 213.76 327.73 214.26C333 217.4 338.32 220.55 343.59 223.74C345.36 224.8 347.19 225.87 348.91 226.98C351.55 228.71 354.13 230.58 356.72 232.4C358.24 233.52 359.76 234.58 361.23 235.7C361.73 236 362.14 236.41 362.49 236.86C362.8 237.42 363 237.98 363.05 238.59C363.51 241.12 363.3 243.66 362.49 246.04C362.24 243.45 361.33 241.02 359.86 238.89Z" id="d4v0HF5xhC"></path><path d="M311.31 234.79C309.43 237.88 310.19 241.48 310.9 245.07C309.64 246.19 308.32 247.3 307.05 248.37C306.34 248.98 305.63 249.58 304.87 250.14C303.76 250.9 302.59 251.56 301.38 252.12C300.26 252.73 299.1 253.28 297.98 253.89C296.92 254.5 295.8 254.96 294.64 255.31C292.41 255.87 290.02 255.46 287.79 254.8C287.54 254.75 287.29 254.65 287.03 254.5C286.88 254.4 286.78 254.3 286.68 254.2C286.48 253.79 286.38 253.33 286.48 252.93C286.68 249.18 287.59 245.58 288.5 241.93C289.01 239.75 289.62 237.62 290.43 235.55C291.24 233.77 292.15 232.05 293.17 230.38C294.28 228.3 295.65 226.32 297.17 224.55C297.93 223.84 298.54 223.03 299.05 222.17C299.6 220.9 299.4 219.38 299.5 218.01C299.6 216.95 299.86 215.93 300.31 214.97C300.31 214.97 300.31 214.97 300.31 214.97C300.57 214.47 300.87 213.96 301.17 213.5C301.33 213.86 301.48 214.21 301.63 214.57C301.73 214.82 301.83 215.02 301.93 215.28C302.09 215.58 302.19 215.88 302.34 216.19C302.69 217.05 303.1 217.91 303.45 218.77C303.86 219.84 304.42 220.9 305.13 221.76C306.19 223.23 308.22 223.59 309.74 222.57C310.19 222.27 310.55 221.86 310.8 221.36C311.36 220.39 311.71 219.38 311.97 218.32C312.27 217 312.32 215.68 312.12 214.36C311.71 211.83 310.65 209.25 309.89 206.86C309.59 206.05 309.38 205.24 309.33 204.38C309.33 204.28 309.33 204.18 309.38 204.08C309.38 204.08 309.38 204.03 309.38 204.03C309.69 203.87 310.04 203.77 310.4 203.67C310.6 203.62 310.8 203.57 311 203.52C311.71 207.27 312.37 211.02 313.08 214.72C313.08 214.82 313.13 214.87 313.13 214.97C313.23 215.53 313.34 216.04 313.44 216.59C313.54 217.1 313.64 217.56 313.79 218.06C313.79 218.06 313.79 218.06 313.79 218.06C313.84 218.22 313.89 218.37 313.94 218.57C313.94 218.57 313.94 218.57 313.94 218.57C314.05 219.03 314.2 219.43 314.35 219.89C315.26 222.42 316.88 225.06 316.33 227.74C315.67 230.58 312.83 232.3 311.31 234.79Z" id="bg8gis9mK"></path><path d="M354.79 269.3C355.4 270.36 356.77 270.62 358.03 270.72C365.18 271.32 372.37 271.07 379.47 270.06C379.87 270.01 380.23 269.91 380.58 269.7C381.6 268.99 380.99 267.27 379.87 266.71C378.76 266.16 377.44 266.31 376.28 266.05C375.06 265.75 373.95 265.24 372.88 264.58C370.45 263.17 368.02 261.7 365.63 260.18C364.22 259.26 362.54 258.3 360.97 258.86C356.56 260.38 354.44 263.06 354.49 267.73C354.44 268.28 354.59 268.84 354.79 269.3Z" id="c2hXxUCRXV"></path><path d="M301.07 213.7C301.07 213.76 301.07 213.86 301.02 213.91C301.02 214.01 300.96 214.11 300.96 214.21C300.76 215.23 300.51 216.24 300.26 217.25C299.5 220.04 298.48 222.73 297.47 225.41C294.73 232.61 291.99 239.8 289.26 247C288.55 248.82 287.89 250.65 287.08 252.42C286.83 253.03 286.57 253.59 286.27 254.2C285.31 256.38 284.39 258.6 284.09 260.89C283.79 262.41 283.79 263.93 283.99 265.45C284.29 266.97 285.2 268.44 286.62 268.99C287.33 269.25 288.35 269.65 288.14 270.36C288.04 270.77 287.59 270.97 287.18 271.02C286.12 271.17 285 270.87 284.14 270.16C283.38 269.5 282.77 268.44 281.76 268.33C281.05 268.23 280.39 268.69 279.78 268.99C277.15 270.21 274.11 269.35 271.32 268.49C271.52 267.37 272.64 266.61 273.75 266.41C274.87 266.21 276.03 266.36 277.15 266.31C277.5 266.31 277.86 266.26 278.16 266.05C278.41 265.8 278.62 265.45 278.72 265.09C279.43 262.91 279.98 260.68 280.34 258.45C280.69 256.07 280.85 253.69 281.4 251.36C281.81 249.53 282.42 247.76 282.97 245.99C284.04 242.29 284.85 238.59 285.56 234.79C285.91 233.22 286.12 231.64 286.27 230.02C286.37 228.71 286.32 227.39 286.42 226.07C286.62 224.35 286.98 222.67 287.48 221C287.99 219.18 288.45 217.4 288.95 215.58C289.66 212.89 290.47 210.16 292.3 208.08C293.57 206.61 295.44 205.75 297.37 205.65C297.72 205.65 298.08 205.7 298.43 205.75C298.48 205.75 298.53 205.8 298.58 205.8C298.99 205.9 299.34 206.05 299.7 206.26C300.26 205.9 300.56 206 300.91 206.56C301.22 207.17 301.42 207.83 301.37 208.49C301.52 210.21 301.42 211.98 301.07 213.7C301.07 213.7 301.07 213.7 301.07 213.7Z" id="aq3WOY04e"></path><path d="M302.44 216.14L302.29 216.29L301.02 217.56L300.41 214.92C299.11 209.48 298.38 206.45 298.23 205.85C298.59 205.85 298.94 205.9 299.3 205.95C299.3 205.85 299.35 205.75 299.35 205.65C299.36 205.67 299.39 205.79 299.45 206L300.16 208.49L301.53 213.2L301.78 213.96L301.78 213.96L302.44 216.14L302.44 216.14Z" id="bcR22mYO"></path><path d="M308.72 191.76C308.52 191.96 308.27 192.17 308.01 192.37C306.9 193.18 305.58 193.64 304.21 193.64C303.45 193.64 297.33 193.64 296.56 193.64C293.01 193.64 290.18 190.75 290.18 187.25C290.18 183.75 293.01 180.87 296.56 180.87C297.33 180.87 303.45 180.87 304.21 180.87C307.71 180.92 310.6 183.75 310.6 187.25C310.6 188.92 309.94 190.55 308.72 191.76Z" id="b4et4reeZd"></path><path d="M317.8 174.68C314.19 174.68 311.26 177.61 311.26 181.22C311.26 184.83 314.19 187.76 317.8 187.76C321.41 187.76 324.33 184.83 324.33 181.22C324.33 177.61 321.41 174.68 317.8 174.68Z" id="d5aWhuYPcR"></path><path d="M317.34 174.68C320.94 174.84 323.78 177.83 323.62 181.47C323.52 184.92 320.73 187.66 317.34 187.76C317.44 187.76 317.49 187.76 317.59 187.76C321.19 187.76 324.13 184.82 324.13 181.22C324.13 177.62 321.24 174.68 317.59 174.68C317.49 174.68 317.44 174.68 317.34 174.68Z" id="f2Hxnm8jHN"></path><path d="M286.78 174.68C283.18 174.84 280.35 177.83 280.5 181.47C280.6 184.92 283.39 187.66 286.78 187.76C286.68 187.76 286.63 187.76 286.53 187.76C282.93 187.76 279.99 184.82 279.99 181.22C279.99 177.62 282.93 174.68 286.53 174.68C286.63 174.68 286.68 174.68 286.78 174.68Z" id="a7YKnxHtj3"></path><path d="M304.21 193.64C303.45 193.64 297.33 193.64 296.56 193.64C295.19 193.64 293.83 193.18 292.76 192.37C293.78 192.37 298.86 192.37 308.01 192.37C306.39 193.21 305.13 193.64 304.21 193.64Z" id="c5OWyaeGH4"></path><path d="M360.57 243.25C360.49 242.84 360.08 240.78 359.35 237.07L357.42 239.75C358.54 242.93 359.59 244.09 360.57 243.25Z" id="c15hwWoMO"></path><path d="M571.54 378.3C573.51 372.83 570.72 366.8 565.25 364.77C563.38 364.11 561.4 363.96 559.42 364.37C559.44 364.73 559.52 366.54 559.68 369.79C558.13 366.99 557.26 365.44 557.09 365.13C554.56 366.29 552.63 368.47 551.67 371.06C551.32 371.97 551.11 372.93 551.06 373.9C550.76 378.61 553.6 382.97 558 384.59C563.48 386.56 569.51 383.78 571.54 378.3Z" id="bjOscJWQP"></path><path d="M570.72 447.53C569.81 442.92 573.77 438.81 577.62 436.18C581.47 433.54 586.03 430.91 587.35 426.4C589.27 419.91 583.6 413.98 579.19 408.86C575.89 405.06 573.11 400.91 570.83 396.4C569.91 394.62 569.05 392.75 568.8 390.72C568.44 387.83 569.36 384.99 570.32 382.26C573.41 373.13 576.76 364.06 580.25 355.04" id="c5JIyZae4S"></path><path d="M577.01 346.48C577.07 346.82 577.35 348.55 577.87 351.65C578.84 348.39 579.38 346.59 579.49 346.23C585.32 346.33 589.98 351.09 589.88 356.92C589.78 362.75 585.02 367.41 579.19 367.31C573.36 367.21 568.7 362.44 568.8 356.61C568.8 355.45 569 354.28 569.41 353.17C570.62 349.77 573.51 347.29 577.01 346.48Z" id="aXR9ZndeD"></path><path d="M590.84 402.58C592.52 397.97 590.79 392.8 586.69 390.11C586.61 390.39 586.2 391.77 585.47 394.27C584.95 391.14 584.67 389.4 584.61 389.05C584.61 389.05 584.61 389.05 584.56 389.05C579.09 387.07 573.06 389.91 571.03 395.38C569 400.91 571.84 406.94 577.31 408.91C577.31 408.91 577.31 408.91 577.31 408.91C577.31 408.91 577.31 408.91 577.31 408.91C584.98 408.34 589.49 406.23 590.84 402.58Z" id="fc1rlu6NQ"></path><path d="M578.58 435.01C584.31 434 588.16 428.52 587.14 422.8C586.13 417.07 580.66 413.22 574.93 414.23C572.35 414.69 570.02 416.11 568.39 418.19C568.71 418.66 570.28 421.02 573.11 425.28C569.24 423.03 567.1 421.78 566.67 421.53C566.16 423.1 566.06 424.83 566.37 426.45C567.38 432.17 572.85 436.03 578.58 435.01Z" id="bjdiVLDEq"></path><path d="M61.17 406.13C62.48 402.53 60.61 398.57 57.01 397.26C55.8 396.8 54.48 396.7 53.21 397C53.22 397.24 53.27 398.42 53.36 400.55C52.36 398.73 51.8 397.71 51.69 397.51C50.02 398.27 48.75 399.69 48.14 401.41C47.94 402.02 47.79 402.63 47.74 403.29C47.54 406.38 49.41 409.22 52.3 410.28C55.9 411.6 59.85 409.72 61.17 406.13Z" id="bJMW1wVxs"></path><path d="M60.66 451.63C60.05 448.59 62.64 445.91 65.17 444.18C67.7 442.46 70.69 440.74 71.56 437.75C72.82 433.49 69.07 429.59 66.18 426.19C64.06 423.71 62.18 420.97 60.66 418.03C60 416.87 59.55 415.6 59.34 414.34C59.09 412.46 59.7 410.59 60.36 408.76C62.38 402.78 64.56 396.8 66.89 390.92" id="a4VS59Klkh"></path><path d="M64.77 385.25C64.8 385.47 64.99 386.6 65.32 388.64C65.96 386.51 66.32 385.33 66.39 385.09C70.24 385.15 73.28 388.29 73.23 392.14C73.18 395.99 70.04 399.03 66.18 398.98C62.33 398.93 59.29 395.79 59.34 391.94C59.44 391.13 59.55 390.37 59.8 389.66C60.61 387.43 62.48 385.8 64.77 385.25Z" id="a3nGPzemd"></path><path d="M73.89 422.14C75 419.1 73.84 415.7 71.15 413.98C71.1 414.16 70.83 415.08 70.34 416.72C70.01 414.65 69.82 413.5 69.78 413.27C69.78 413.27 69.78 413.27 69.78 413.27C66.18 411.95 62.23 413.83 60.91 417.43C59.55 420.97 61.42 424.98 65.02 426.3C65.02 426.3 65.02 426.3 65.02 426.3C68.62 427.61 72.57 425.74 73.89 422.14Z" id="bA0thiaHj"></path><path d="M65.83 443.42C69.58 442.77 72.11 439.17 71.45 435.42C70.8 431.67 67.2 429.13 63.45 429.79C61.72 430.1 60.2 431.01 59.14 432.38C59.35 432.69 60.38 434.24 62.23 437.04C59.71 435.55 58.31 434.72 58.03 434.56C57.67 435.57 57.62 436.68 57.82 437.8C58.48 441.55 62.08 444.08 65.83 443.42Z" id="b3wGyAvTWt"></path><path d="M300.11 333.71C300.11 339.87 296.25 344.86 291.49 344.86C286.74 344.86 282.88 339.87 282.88 333.71C282.88 327.55 286.74 322.56 291.49 322.56C296.25 322.56 300.11 327.55 300.11 333.71Z" id="fWnptx5y5"></path><path d="M346.99 333.96C346.99 340.12 343.13 345.11 338.37 345.11C333.61 345.11 329.76 340.12 329.76 333.96C329.76 327.8 333.61 322.81 338.37 322.81C343.13 322.81 346.99 327.8 346.99 333.96Z" id="aIStPZldL"></path><path d="M316.07 376.02C307.41 376.02 300.36 371.92 300.36 366.9C300.36 362.54 305.63 358.89 312.68 357.98C313.79 357.83 314.91 357.78 316.07 357.78C317.95 357.78 319.87 357.98 321.7 358.39C327.58 359.65 331.78 363 331.78 366.9C331.78 371.92 324.74 376.02 316.07 376.02Z" id="a2uJDqlTo3"></path><path d="M321.24 360.87C320.84 361.33 320.23 361.58 319.62 361.58C319.11 361.58 315.06 361.58 314.55 361.58C313.23 361.53 312.22 360.47 312.27 359.15C312.27 358.64 312.42 358.19 312.68 357.78C313.79 357.63 314.91 357.53 316.07 357.53C317.95 357.53 319.87 357.73 321.7 358.19C321.85 358.44 321.9 358.79 321.9 359.15C321.9 359.81 321.65 360.41 321.24 360.87Z" id="d2FOPuwd8O"></path><path d="M293.52 325.6C292.12 325.6 290.99 326.73 290.99 328.13C290.99 329.53 292.12 330.67 293.52 330.67C294.92 330.67 296.06 329.53 296.06 328.13C296.06 326.73 294.92 325.6 293.52 325.6Z" id="bLbnfNBrB"></path><path d="M340.65 325.6C339.25 325.6 338.12 326.73 338.12 328.13C338.12 329.53 339.25 330.67 340.65 330.67C342.05 330.67 343.18 329.53 343.18 328.13C343.18 326.73 342.05 325.6 340.65 325.6Z" id="f2jdHH25NM"></path><path d="M343.18 349.42C341.79 349.42 340.65 350.55 340.65 351.95C340.65 353.35 341.79 354.49 343.18 354.49C344.58 354.49 345.72 353.35 345.72 351.95C345.72 350.55 344.58 349.42 343.18 349.42Z" id="a2wEuAwII"></path><path d="M281.36 349.42C279.96 349.42 278.82 350.55 278.82 351.95C278.82 353.35 279.96 354.49 281.36 354.49C282.76 354.49 283.89 353.35 283.89 351.95C283.89 350.55 282.76 349.42 281.36 349.42Z" id="aAJMsVJ73"></path><path d="M620.15 464.16C620.15 480.17 484.17 493.15 316.44 493.15C148.71 493.15 12.73 480.17 12.73 464.16C12.73 448.15 148.71 435.17 316.44 435.17C484.17 435.17 620.15 448.15 620.15 464.16Z" id="ald4jtbgn"></path></defs><g><g><g><use xlink:href="#aN6W6VYpg" opacity="1" fill="#2f2e41" fill-opacity="1"></use><g><use xlink:href="#aN6W6VYpg" opacity="1" fill-opacity="0" stroke="#000000" stroke-width="1" stroke-opacity="0"></use></g></g><g><use xlink:href="#c4Ls1ZgEzr" opacity="1" fill="#e74c3c" fill-opacity="1"></use><g><use xlink:href="#c4Ls1ZgEzr" opacity="1" fill-opacity="0" stroke="#000000" stroke-width="1" stroke-opacity="0"></use></g></g><g><use xlink:href="#c4LPmhfkg9" opacity="1" fill="#e74c3c" fill-opacity="1"></use><g><use xlink:href="#c4LPmhfkg9" opacity="1" fill-opacity="0" stroke="#000000" stroke-width="1" stroke-opacity="0"></use></g></g><g><use xlink:href="#c1pLCBk9K" opacity="1" fill="#2f2e41" fill-opacity="1"></use><g><use xlink:href="#c1pLCBk9K" opacity="1" fill-opacity="0" stroke="#000000" stroke-width="1" stroke-opacity="0"></use></g></g><g><use xlink:href="#c2P3ceuKKi" opacity="1" fill="#2f2e41" fill-opacity="1"></use><g><use xlink:href="#c2P3ceuKKi" opacity="1" fill-opacity="0" stroke="#000000" stroke-width="1" stroke-opacity="0"></use></g></g><g><use xlink:href="#ca7CNKUqJg" opacity="1" fill="#000000" fill-opacity="1"></use><g><use xlink:href="#ca7CNKUqJg" opacity="1" fill-opacity="0" stroke="#000000" stroke-width="1" stroke-opacity="0"></use></g></g><g><use xlink:href="#b1CMTMDHnm" opacity="1" fill="#3f3d56" fill-opacity="1"></use><g><use xlink:href="#b1CMTMDHnm" opacity="1" fill-opacity="0" stroke="#000000" stroke-width="1" stroke-opacity="0"></use></g></g><g><use xlink:href="#a2qbC3pfYB" opacity="1" fill="#000000" fill-opacity="1"></use><g><use xlink:href="#a2qbC3pfYB" opacity="1" fill-opacity="0" stroke="#000000" stroke-width="1" stroke-opacity="0"></use></g></g><g><use xlink:href="#c2981AjbGa" opacity="1" fill="#3f3d56" fill-opacity="1"></use><g><use xlink:href="#c2981AjbGa" opacity="1" fill-opacity="0" stroke="#000000" stroke-width="1" stroke-opacity="0"></use></g></g><g><use xlink:href="#a4fDjITi1g" opacity="1" fill="#fbbebe" fill-opacity="1"></use><g><use xlink:href="#a4fDjITi1g" opacity="1" fill-opacity="0" stroke="#000000" stroke-width="1" stroke-opacity="0"></use></g></g><g><use xlink:href="#a3EtYtACFa" opacity="1" fill="#fbbebe" fill-opacity="1"></use><g><use xlink:href="#a3EtYtACFa" opacity="1" fill-opacity="0" stroke="#000000" stroke-width="1" stroke-opacity="0"></use></g></g><g><use xlink:href="#d4v0HF5xhC" opacity="1" fill="#fbbebe" fill-opacity="1"></use><g><use xlink:href="#d4v0HF5xhC" opacity="1" fill-opacity="0" stroke="#000000" stroke-width="1" stroke-opacity="0"></use></g></g><g><use xlink:href="#bg8gis9mK" opacity="1" fill="#e74c3c" fill-opacity="1"></use><g><use xlink:href="#bg8gis9mK" opacity="1" fill-opacity="0" stroke="#000000" stroke-width="1" stroke-opacity="0"></use></g></g><g><use xlink:href="#c2hXxUCRXV" opacity="1" fill="#3f3d56" fill-opacity="1"></use><g><use xlink:href="#c2hXxUCRXV" opacity="1" fill-opacity="0" stroke="#000000" stroke-width="1" stroke-opacity="0"></use></g></g><g><use xlink:href="#aq3WOY04e" opacity="1" fill="#fbbebe" fill-opacity="1"></use><g><use xlink:href="#aq3WOY04e" opacity="1" fill-opacity="0" stroke="#000000" stroke-width="1" stroke-opacity="0"></use></g></g><g><use xlink:href="#bcR22mYO" opacity="1" fill="#8b50ff" fill-opacity="1"></use><g><use xlink:href="#bcR22mYO" opacity="1" fill-opacity="0" stroke="#000000" stroke-width="1" stroke-opacity="0"></use></g></g><g><use xlink:href="#b4et4reeZd" opacity="1" fill="#2f2e41" fill-opacity="1"></use><g><use xlink:href="#b4et4reeZd" opacity="1" fill-opacity="0" stroke="#000000" stroke-width="1" stroke-opacity="0"></use></g></g><g><use xlink:href="#d5aWhuYPcR" opacity="1" fill="#2f2e41" fill-opacity="1"></use><g><use xlink:href="#d5aWhuYPcR" opacity="1" fill-opacity="0" stroke="#000000" stroke-width="1" stroke-opacity="0"></use></g></g><g><use xlink:href="#f2Hxnm8jHN" opacity="1" fill="#000000" fill-opacity="1"></use><g><use xlink:href="#f2Hxnm8jHN" opacity="1" fill-opacity="0" stroke="#000000" stroke-width="1" stroke-opacity="0"></use></g></g><g><use xlink:href="#a7YKnxHtj3" opacity="1" fill="#000000" fill-opacity="1"></use><g><use xlink:href="#a7YKnxHtj3" opacity="1" fill-opacity="0" stroke="#000000" stroke-width="1" stroke-opacity="0"></use></g></g><g><use xlink:href="#c5OWyaeGH4" opacity="1" fill="#000000" fill-opacity="1"></use><g><use xlink:href="#c5OWyaeGH4" opacity="1" fill-opacity="0" stroke="#000000" stroke-width="1" stroke-opacity="0"></use></g></g><g><use xlink:href="#c15hwWoMO" opacity="1" fill="#fbbebe" fill-opacity="1"></use><g><use xlink:href="#c15hwWoMO" opacity="1" fill-opacity="0" stroke="#000000" stroke-width="1" stroke-opacity="0"></use></g></g><g><use xlink:href="#bjOscJWQP" opacity="1" fill="#57b894" fill-opacity="1"></use><g><use xlink:href="#bjOscJWQP" opacity="1" fill-opacity="0" stroke="#000000" stroke-width="1" stroke-opacity="0"></use></g></g><g><use xlink:href="#c5JIyZae4S" opacity="1" fill="#000000" fill-opacity="0"></use><g><use xlink:href="#c5JIyZae4S" opacity="1" fill-opacity="0" stroke="#3f3d56" stroke-width="1" stroke-opacity="1"></use></g></g><g><use xlink:href="#aXR9ZndeD" opacity="1" fill="#57b894" fill-opacity="1"></use><g><use xlink:href="#aXR9ZndeD" opacity="1" fill-opacity="0" stroke="#000000" stroke-width="1" stroke-opacity="0"></use></g></g><g><use xlink:href="#fc1rlu6NQ" opacity="1" fill="#57b894" fill-opacity="1"></use><g><use xlink:href="#fc1rlu6NQ" opacity="1" fill-opacity="0" stroke="#000000" stroke-width="1" stroke-opacity="0"></use></g></g><g><use xlink:href="#bjdiVLDEq" opacity="1" fill="#57b894" fill-opacity="1"></use><g><use xlink:href="#bjdiVLDEq" opacity="1" fill-opacity="0" stroke="#000000" stroke-width="1" stroke-opacity="0"></use></g></g><g><use xlink:href="#bJMW1wVxs" opacity="1" fill="#57b894" fill-opacity="1"></use><g><use xlink:href="#bJMW1wVxs" opacity="1" fill-opacity="0" stroke="#000000" stroke-width="1" stroke-opacity="0"></use></g></g><g><use xlink:href="#a4VS59Klkh" opacity="1" fill="#000000" fill-opacity="0"></use><g><use xlink:href="#a4VS59Klkh" opacity="1" fill-opacity="0" stroke="#3f3d56" stroke-width="1" stroke-opacity="1"></use></g></g><g><use xlink:href="#a3nGPzemd" opacity="1" fill="#57b894" fill-opacity="1"></use><g><use xlink:href="#a3nGPzemd" opacity="1" fill-opacity="0" stroke="#000000" stroke-width="1" stroke-opacity="0"></use></g></g><g><use xlink:href="#bA0thiaHj" opacity="1" fill="#57b894" fill-opacity="1"></use><g><use xlink:href="#bA0thiaHj" opacity="1" fill-opacity="0" stroke="#000000" stroke-width="1" stroke-opacity="0"></use></g></g><g><use xlink:href="#b3wGyAvTWt" opacity="1" fill="#57b894" fill-opacity="1"></use><g><use xlink:href="#b3wGyAvTWt" opacity="1" fill-opacity="0" stroke="#000000" stroke-width="1" stroke-opacity="0"></use></g></g><g><use xlink:href="#fWnptx5y5" opacity="1" fill="#2f2e41" fill-opacity="1"></use><g><use xlink:href="#fWnptx5y5" opacity="1" fill-opacity="0" stroke="#000000" stroke-width="1" stroke-opacity="0"></use></g></g><g><use xlink:href="#aIStPZldL" opacity="1" fill="#2f2e41" fill-opacity="1"></use><g><use xlink:href="#aIStPZldL" opacity="1" fill-opacity="0" stroke="#000000" stroke-width="1" stroke-opacity="0"></use></g></g><g><use xlink:href="#a2uJDqlTo3" opacity="1" fill="#2f2e41" fill-opacity="1"></use><g><use xlink:href="#a2uJDqlTo3" opacity="1" fill-opacity="0" stroke="#000000" stroke-width="1" stroke-opacity="0"></use></g></g><g><use xlink:href="#d2FOPuwd8O" opacity="1" fill="#ffffff" fill-opacity="1"></use><g><use xlink:href="#d2FOPuwd8O" opacity="1" fill-opacity="0" stroke="#000000" stroke-width="1" stroke-opacity="0"></use></g></g><g><use xlink:href="#bLbnfNBrB" opacity="1" fill="#ffffff" fill-opacity="1"></use><g><use xlink:href="#bLbnfNBrB" opacity="1" fill-opacity="0" stroke="#000000" stroke-width="1" stroke-opacity="0"></use></g></g><g><use xlink:href="#f2jdHH25NM" opacity="1" fill="#ffffff" fill-opacity="1"></use><g><use xlink:href="#f2jdHH25NM" opacity="1" fill-opacity="0" stroke="#000000" stroke-width="1" stroke-opacity="0"></use></g></g><g><use xlink:href="#a2wEuAwII" opacity="1" fill="#8b50ff" fill-opacity="1"></use><g><use xlink:href="#a2wEuAwII" opacity="1" fill-opacity="0" stroke="#000000" stroke-width="1" stroke-opacity="0"></use></g></g><g><use xlink:href="#aAJMsVJ73" opacity="1" fill="#8b50ff" fill-opacity="1"></use><g><use xlink:href="#aAJMsVJ73" opacity="1" fill-opacity="0" stroke="#000000" stroke-width="1" stroke-opacity="0"></use></g></g><g><use xlink:href="#ald4jtbgn" opacity="1" fill="#e74c3c" fill-opacity="1"></use><g><use xlink:href="#ald4jtbgn" opacity="1" fill-opacity="0" stroke="#000000" stroke-width="1" stroke-opacity="0"></use></g></g></g></g></svg>